<?xml version="1.0" encoding="utf-8"?>
<!-- Generator: Adobe Illustrator 25.3.1, SVG Export Plug-In . SVG Version: 6.00 Build 0)  -->
<svg version="1.1" id="图层_1" xmlns="http://www.w3.org/2000/svg" xmlns:xlink="http://www.w3.org/1999/xlink" x="0px" y="0px"
	 viewBox="0 0 500 98.36" style="enable-background:new 0 0 500 98.36;" xml:space="preserve">
<style type="text/css">
	.st0{fill:#006EFB;}
	.st1{fill:#00B794;}
	.st2{fill:#00C39D;}
</style>
<g>
	<g>
		<polygon class="st0" points="177.58,17.61 177.58,76.31 163.79,76.31 135.95,35.92 135.95,76.31 124.18,76.31 124.18,17.61 
			137.98,17.61 165.81,58.02 165.81,17.61 		"/>
		<rect x="189.86" y="34.1" class="st0" width="11.77" height="42.22"/>
		<rect x="189.86" y="17.61" class="st1" width="11.77" height="11.02"/>
		<path class="st0" d="M443.25,77.92c-2.58,0-6.07-0.24-8.36-0.69c-1.96-0.38-6.53-1.94-6.53-8.11V44.12h-7.78v-9.98h7.78V23.12
			h11.77v11.02h12.25v9.9h-12.25v15.58c0,5.23,0.08,7.13,2.63,8.13c2.2,0.86,7.79-0.34,9.63-0.94c0,0,0,8.5,0,9.78
			C450.09,77.28,446.62,77.92,443.25,77.92z"/>
		<path class="st0" d="M242.53,76.31V50.97c0-3.68-2.06-8.95-9.07-8.95c-6.79,0-8.94,5.26-8.94,8.95c0,3.69,0,25.35,0,25.35h-11.77
			V34.1h11.77v3.84c0,0,3.21-5.44,11.57-5.44c13.77,0,18.21,11.69,18.21,17.22v26.6H242.53z"/>
		<path class="st0" d="M325.66,77.91v0.01h-11.47V17.61h23.02c15.62,0,22.12,9.67,23.26,11.6c4.11,6.97,4.72,14.61,4.72,18.56
			c0,10.18-2.69,17.81-8.01,22.65c-2.47,2.26-9.45,7.5-20.8,7.5L325.66,77.91z M325.96,66.88h0.85c3.26,0,7.51-0.02,9.26-0.07
			c5.65-0.19,9.8-1.84,12.33-4.91l0.31-0.37c2.6-3.14,4.48-5.4,4.48-14.49c0-6.68-2.39-10.06-3.98-12.3
			c-1.74-2.46-6.76-6.09-12-6.09h-11.25V66.88z"/>
		<path class="st0" d="M283.59,77.92c-10.72,0-21.65-4.75-21.65-22.58c0-15.67,10.93-22.84,21.65-22.84
			c10.72,0,21.87,6.68,21.87,22.84c0,1.33-0.11,2.66-0.34,3.95l-0.08,0.45c0,0-31.38,0-32.03,0c0,3.35,1.65,8.67,10.58,8.67
			c4.82,0,11.39-2.25,13.85-4.52c0.82,0.83,5,5.02,6.39,6.42C300.22,73.79,294.86,77.92,283.59,77.92z M293.69,50.97
			c0-5.95-5.33-8.95-10.09-8.95s-9.89,3.26-9.89,8.95C274.33,50.97,293.1,50.97,293.69,50.97z"/>
		<path class="st0" d="M389.95,77.9c-1.97,0-3.56-0.18-4.54-0.33c-7.11-1.08-13.7-6.4-12.56-14.48c1.07-7.57,6.73-12.65,15.51-13.92
			c1.53-0.22,3.13-0.33,4.77-0.33c4.33,0,7.35,0.86,9.52,2.02c0-6.75-3.73-8.85-9.68-8.85c-7.58,0-11.51,4-12.84,5.86
			c-1.48-1.47-5.55-5.43-6.62-6.47c0.8-1.08,6.42-8.9,19.53-8.9c14.11,0,21.15,6.1,21.15,19.78V76.3l-11.51,0.03c0,0,0-2.99,0-3.39
			C399.95,75.8,393.56,77.9,389.95,77.9z M396,56.91c-8.22,0-11.46,3.62-11.46,7.03c0,3.58,3.98,5.39,7.38,5.39
			c4.98,0,8.74-3.17,10.77-6.21c0-1.32,0-4.33,0-4.33S399.11,56.91,396,56.91z"/>
		<path class="st0" d="M475.76,77.9c-1.97,0-3.56-0.18-4.54-0.33c-7.11-1.08-13.7-6.4-12.56-14.48c1.07-7.57,6.73-12.65,15.51-13.92
			c1.53-0.22,3.13-0.33,4.77-0.33c4.33,0,7.35,0.86,9.52,2.02c0-6.75-3.73-8.85-9.68-8.85c-7.58,0-11.51,4-12.84,5.86
			c-1.48-1.47-5.55-5.43-6.62-6.47c0.8-1.08,6.42-8.9,19.53-8.9c14.11,0,21.15,6.1,21.15,19.78V76.3l-11.51,0.03c0,0,0-2.99,0-3.39
			C485.75,75.8,479.37,77.9,475.76,77.9z M481.8,56.91c-8.22,0-11.46,3.62-11.46,7.03c0,3.58,3.98,5.39,7.38,5.39
			c4.98,0,8.74-3.17,10.77-6.21c0-1.32,0-4.33,0-4.33S484.92,56.91,481.8,56.91z"/>
	</g>
	<g>
		<g>
			<path class="st0" d="M45.38,75.34l0.07,0.13H20.81L0,39.43L22.76,0h12.47L49.3,24.4H33.42l-8.77,14.74
				C28.27,45.09,41.69,68.85,45.38,75.34z"/>
			<path class="st0" d="M80.21,39.51L45.84,98.49H31.87c3.07-5.25,8.94-15.33,13.43-23.02c0.02-0.04,0.04-0.09,0.08-0.13
				c1.67-2.86,3.16-5.41,4.27-7.32l-8.01-14.24l16.09,0.07l8.66-14.64h0.02l0.02-0.06L43.98,0h13.65L80.21,39.51z"/>
		</g>
		<polygon class="st1" points="102.03,39.67 67.76,98.49 53.77,98.49 88.06,39.63 65.41,0 79.35,0 		"/>
	</g>
</g>
</svg>
